<?xml version="1.0" standalone="no"?>
<!DOCTYPE svg PUBLIC "-//W3C//DTD SVG 20010904//EN"
 "http://www.w3.org/TR/2001/REC-SVG-20010904/DTD/svg10.dtd">
<svg version="1.0" xmlns="http://www.w3.org/2000/svg"
 width="512.000000pt" height="512.000000pt" viewBox="0 0 512.000000 512.000000"
 preserveAspectRatio="xMidYMid meet">

<g transform="translate(0.000000,512.000000) scale(0.100000,-0.100000)"
fill="#000000" stroke="none">
<path d="M613 4801 c-40 -25 -62 -59 -69 -102 -3 -20 34 -267 85 -578 l90
-544 -38 -66 c-86 -147 -175 -373 -215 -546 -34 -143 -44 -212 -56 -364 -5
-74 -11 -136 -13 -138 -2 -2 -59 2 -125 8 -140 12 -177 5 -216 -42 -67 -80
-47 -187 45 -234 14 -8 90 -19 170 -25 79 -7 147 -15 150 -18 8 -9 33 -161 28
-167 -3 -2 -78 1 -168 8 -155 11 -165 10 -199 -8 -55 -31 -77 -68 -77 -130 0
-38 6 -61 21 -81 46 -63 55 -65 294 -84 122 -10 225 -22 229 -26 4 -5 18 -34
30 -64 113 -274 346 -587 591 -792 400 -335 873 -508 1390 -508 738 0 1407
363 1811 982 60 93 189 341 189 364 0 7 5 16 11 20 6 3 110 14 231 24 237 19
246 22 292 84 15 20 21 43 21 81 0 62 -22 99 -77 130 -34 18 -44 19 -199 8
-90 -7 -165 -10 -167 -8 -5 5 20 159 27 167 3 3 71 11 150 18 80 6 156 17 170
25 92 47 112 154 45 234 -39 47 -76 54 -216 42 -66 -6 -123 -10 -125 -8 -2 2
-8 64 -13 138 -13 162 -23 228 -60 379 -45 182 -126 385 -211 531 l-38 66 90
544 c51 311 88 558 85 578 -12 76 -70 121 -156 121 -70 0 -226 -24 -332 -50
-198 -49 -418 -147 -592 -264 l-98 -65 -75 30 c-108 42 -262 84 -410 110 -108
20 -163 23 -353 23 -190 0 -245 -3 -353 -23 -148 -26 -302 -68 -410 -110 l-75
-30 -99 66 c-257 172 -605 294 -882 309 -85 5 -100 3 -128 -15z m387 -333
c200 -54 337 -125 606 -315 63 -45 99 -43 236 13 96 38 303 104 330 104 4 0 8
-109 8 -241 0 -230 1 -243 22 -277 28 -46 95 -76 149 -67 51 9 103 58 118 110
6 24 11 135 11 278 l0 237 80 0 80 0 0 -237 c0 -143 5 -254 11 -278 15 -52 67
-101 118 -110 54 -9 121 21 149 67 21 34 22 47 22 277 0 132 4 241 8 241 27 0
234 -66 330 -104 139 -57 172 -58 238 -11 203 144 306 204 460 265 72 29 264
84 270 77 2 -1 -33 -217 -76 -479 -61 -363 -77 -483 -70 -507 5 -17 25 -58 45
-91 105 -172 195 -403 234 -598 21 -105 47 -370 37 -380 -3 -3 -113 -14 -243
-24 -258 -21 -292 -29 -324 -82 -39 -63 -36 -124 8 -177 50 -59 68 -62 309
-43 117 10 216 15 218 13 6 -6 -30 -158 -39 -167 -3 -4 -96 -14 -205 -23 -157
-13 -205 -20 -231 -35 -98 -57 -93 -211 8 -259 31 -15 54 -16 176 -10 l140 7
-38 -68 c-203 -364 -499 -641 -860 -806 -325 -148 -679 -200 -1027 -152 -581
80 -1101 441 -1381 957 l-38 69 139 -7 c121 -6 144 -5 175 10 101 48 106 202
8 259 -26 15 -74 22 -231 35 -109 9 -202 19 -205 23 -9 9 -45 161 -39 167 2 2
101 -3 218 -13 241 -19 259 -16 309 43 44 53 47 114 8 177 -32 53 -66 61 -324
82 -130 10 -240 21 -243 24 -10 10 16 275 37 379 36 182 97 350 188 516 27 51
57 103 66 116 38 59 38 68 -40 541 -42 248 -78 464 -81 479 -7 32 -12 32 126
-5z"/>
<path d="M1920 3282 c-22 -12 -44 -35 -57 -62 -20 -39 -23 -59 -23 -170 0
-102 4 -133 20 -167 48 -106 198 -112 260 -11 17 29 20 51 20 173 0 113 -3
147 -18 175 -36 73 -127 101 -202 62z"/>
<path d="M3049 3277 c-59 -39 -69 -73 -69 -232 0 -122 3 -144 20 -173 62 -101
212 -95 260 11 16 34 20 65 20 167 0 111 -3 131 -22 170 -40 77 -138 104 -209
57z"/>
<path d="M2347 2620 c-66 -12 -163 -60 -218 -108 -276 -246 -146 -706 219
-774 l62 -12 0 -42 0 -42 -122 -90 c-149 -108 -156 -112 -207 -112 -63 0 -109
47 -121 123 -15 97 -67 147 -152 147 -52 0 -101 -28 -128 -72 -55 -91 9 -296
124 -394 22 -19 70 -49 105 -67 54 -26 78 -32 155 -35 144 -6 190 13 404 170
l92 68 93 -68 c213 -157 259 -176 403 -170 77 3 101 9 155 35 35 18 83 48 105
67 115 98 179 303 124 394 -27 44 -76 72 -128 72 -85 0 -137 -50 -152 -147
-12 -76 -58 -123 -121 -123 -51 0 -58 4 -206 112 l-123 90 0 42 0 42 63 12
c213 40 367 225 367 442 0 216 -161 405 -376 440 -69 12 -348 11 -417 0z m418
-313 c98 -55 100 -198 3 -257 -30 -18 -51 -20 -208 -20 -157 0 -178 2 -208 20
-97 59 -95 202 3 257 37 21 52 23 205 23 153 0 168 -2 205 -23z"/>
</g>
</svg>
