<?xml version="1.0" standalone="no"?>
<!DOCTYPE svg PUBLIC "-//W3C//DTD SVG 20010904//EN"
 "http://www.w3.org/TR/2001/REC-SVG-20010904/DTD/svg10.dtd">
<svg version="1.0" xmlns="http://www.w3.org/2000/svg"
 width="512.000000pt" height="512.000000pt" viewBox="0 0 512.000000 512.000000"
 preserveAspectRatio="xMidYMid meet">

<g transform="translate(0.000000,512.000000) scale(0.100000,-0.100000)"
fill="#000000" stroke="none">
<path d="M2343 4774 c-254 -37 -491 -125 -695 -258 -44 -29 -65 -35 -128 -41
-428 -35 -776 -197 -1061 -491 -236 -245 -364 -496 -436 -854 -11 -57 -16
-179 -20 -505 -5 -475 -4 -495 58 -617 38 -75 132 -169 206 -206 149 -75 296
-78 453 -8 13 5 15 -14 15 -141 1 -161 13 -227 66 -355 42 -103 95 -183 172
-265 204 -214 468 -324 751 -311 l106 5 24 -37 c67 -102 220 -225 353 -283
120 -53 206 -70 353 -70 147 0 233 17 353 70 133 58 285 180 352 280 l26 40
98 -5 c288 -14 553 95 758 311 77 82 130 162 172 265 53 128 65 194 66 355 0
127 2 146 15 141 114 -51 225 -64 325 -39 195 49 330 182 380 376 15 56 16
115 12 494 -4 326 -9 448 -20 505 -72 358 -200 609 -436 854 -285 294 -633
456 -1061 491 -63 6 -84 12 -128 41 -330 215 -756 313 -1129 258z m402 -299
c596 -85 1061 -540 1154 -1130 6 -38 52 -425 102 -860 70 -605 90 -809 86
-870 -17 -260 -184 -471 -446 -563 -67 -23 -91 -26 -206 -26 -111 0 -139 3
-195 24 -132 47 -228 119 -425 319 l-90 91 60 0 c232 0 421 160 457 387 13 85
4 283 -16 345 -45 140 -169 256 -321 299 -72 20 -618 20 -690 0 -152 -43 -276
-159 -321 -299 -20 -62 -29 -260 -16 -345 29 -183 158 -327 335 -371 35 -9 90
-16 122 -16 l60 0 -90 -91 c-197 -200 -293 -272 -425 -319 -56 -21 -84 -24
-195 -24 -115 0 -139 3 -206 26 -262 92 -429 303 -446 563 -4 61 16 265 86
870 50 435 96 822 102 860 51 322 218 618 465 824 299 249 683 360 1059 306z
m-1567 -431 c-104 -164 -174 -319 -217 -484 -14 -49 -32 -95 -46 -110 -71 -78
-140 -210 -182 -348 -27 -87 -27 -88 -32 -502 l-6 -415 -27 -45 c-78 -134
-274 -126 -343 14 l-27 54 5 414 c5 444 7 469 64 648 58 183 195 403 334 536
122 116 268 211 422 275 50 20 93 36 95 34 2 -1 -16 -34 -40 -71z m2892 5 c96
-44 246 -148 334 -230 150 -140 288 -358 349 -549 57 -179 59 -204 64 -648 l5
-414 -27 -54 c-69 -140 -265 -148 -343 -14 l-27 45 -6 415 c-5 414 -5 415 -32
502 -42 138 -111 270 -182 348 -14 15 -32 61 -46 110 -43 164 -113 320 -216
483 -24 37 -43 69 -43 72 0 6 87 -28 170 -66z m-1189 -1872 c55 -37 69 -76 69
-197 0 -90 -3 -110 -23 -144 -42 -73 -55 -76 -367 -76 -312 0 -325 3 -367 76
-20 34 -23 54 -23 144 0 121 14 160 69 197 33 23 39 23 321 23 282 0 288 0
321 -23z m-182 -1110 c76 -75 169 -155 211 -183 41 -26 77 -50 80 -52 12 -9
-113 -110 -173 -140 -164 -81 -350 -81 -514 0 -61 30 -185 131 -173 140 3 2
37 24 75 48 39 25 131 105 210 182 77 76 142 138 144 138 3 0 66 -60 140 -133z"/>
<path d="M1903 3481 c-61 -38 -68 -65 -68 -266 0 -163 2 -183 20 -215 59 -99
211 -96 260 5 14 30 16 64 13 225 l-3 190 -37 37 c-33 32 -44 37 -95 40 -45 3
-65 0 -90 -16z"/>
<path d="M3075 3490 c-11 -4 -33 -22 -50 -40 l-30 -31 -3 -189 c-3 -161 -1
-195 13 -225 49 -101 201 -104 260 -5 18 32 20 52 20 215 0 201 -7 228 -68
265 -33 21 -105 26 -142 10z"/>
</g>
</svg>
