<?xml version="1.0" standalone="no"?>
<!DOCTYPE svg PUBLIC "-//W3C//DTD SVG 20010904//EN"
 "http://www.w3.org/TR/2001/REC-SVG-20010904/DTD/svg10.dtd">
<svg version="1.0" xmlns="http://www.w3.org/2000/svg"
 width="512.000000pt" height="512.000000pt" viewBox="0 0 512.000000 512.000000"
 preserveAspectRatio="xMidYMid meet">

<g transform="translate(0.000000,512.000000) scale(0.100000,-0.100000)"
fill="#000000" stroke="none">
<path d="M2081 5104 c-317 -85 -443 -450 -246 -712 24 -31 135 -148 248 -258
181 -178 213 -206 282 -240 69 -34 87 -39 171 -42 120 -6 206 19 290 82 33 24
154 140 270 257 183 185 216 223 245 284 33 68 34 74 34 190 0 114 -2 123 -32
188 -38 80 -122 173 -191 210 -174 95 -384 68 -530 -68 l-56 -52 -63 53 c-73
63 -121 89 -200 109 -71 19 -151 18 -222 -1z m166 -295 c15 -5 73 -55 128
-109 103 -102 132 -120 191 -120 51 0 67 11 185 126 83 80 114 104 143 109
107 21 186 -45 186 -154 0 -42 -5 -56 -39 -98 -63 -78 -385 -391 -415 -403
-39 -14 -102 -12 -134 4 -41 22 -430 417 -442 449 -16 45 -12 89 14 131 39 65
113 91 183 65z"/>
<path d="M2373 3589 c-155 -18 -319 -71 -448 -144 -43 -25 -82 -45 -87 -45 -5
0 -31 11 -58 25 -159 81 -373 69 -571 -31 -294 -148 -682 -637 -779 -984 -66
-236 -17 -443 145 -606 98 -99 215 -161 341 -180 l46 -7 -6 -46 c-20 -144 -28
-271 -23 -386 14 -321 105 -555 295 -757 206 -219 482 -342 907 -404 172 -26
676 -26 858 0 652 90 1036 385 1164 891 40 163 44 458 7 677 -6 35 -5 37 22
43 156 34 268 90 357 180 217 221 232 503 45 855 -127 240 -355 516 -538 652
-245 182 -516 222 -729 107 l-54 -28 -28 20 c-57 40 -221 111 -311 133 -171
44 -373 56 -555 35z m468 -322 c218 -57 382 -179 517 -385 71 -109 159 -295
218 -462 26 -74 86 -243 135 -375 160 -439 174 -504 174 -780 0 -215 -10 -280
-62 -409 -104 -256 -350 -432 -706 -506 -87 -18 -189 -32 -339 -45 l-68 -6 0
325 0 324 58 32 c87 49 192 162 238 255 37 75 39 84 39 174 0 85 -3 103 -28
152 -53 108 -156 178 -297 200 -111 17 -318 7 -403 -20 -215 -69 -304 -299
-197 -511 54 -106 167 -221 260 -261 l30 -14 0 -328 0 -328 -67 6 c-392 34
-626 106 -814 251 -238 183 -337 500 -284 906 19 147 57 278 159 556 45 125
106 295 135 377 63 180 161 388 235 499 144 217 348 351 596 391 130 22 350
13 471 -18z m849 -89 c102 -31 203 -102 327 -231 249 -260 420 -580 399 -750
-10 -85 -66 -171 -144 -219 -38 -23 -123 -48 -168 -48 l-32 0 -62 168 c-34 92
-85 232 -112 312 -105 306 -209 526 -323 685 l-65 90 33 6 c37 7 97 2 147 -13z
m-2098 -4 c3 -3 -26 -53 -66 -112 -117 -176 -183 -322 -316 -697 -43 -121 -97
-273 -121 -338 l-44 -119 -48 6 c-163 22 -281 133 -294 276 -14 155 118 418
343 679 141 164 287 273 402 300 42 10 136 14 144 5z m1136 -1722 c25 -14 29
-50 11 -85 -31 -59 -112 -130 -161 -142 -52 -13 -155 66 -195 151 -21 43 -11
63 38 82 44 16 274 11 307 -6z"/>
<path d="M2079 2537 c-59 -39 -69 -73 -69 -235 0 -161 10 -196 63 -234 16 -12
50 -23 76 -25 63 -6 109 20 139 77 20 40 22 59 22 185 0 113 -3 147 -18 175
-25 50 -75 80 -132 80 -32 0 -58 -7 -81 -23z"/>
<path d="M2879 2537 c-59 -39 -69 -73 -69 -237 0 -132 2 -149 23 -184 58 -102
211 -98 261 8 24 51 23 307 -2 356 -25 50 -75 80 -132 80 -32 0 -58 -7 -81
-23z"/>
</g>
</svg>
